<mxfile host="app.diagrams.net" agent="Mozilla/5.0 (Macintosh; Intel Mac OS X 10_15_7) AppleWebKit/605.1.15 (KHTML, like Gecko) Version/18.2 Safari/605.1.15" version="26.0.1">
  <diagram name="Page-1" id="2MSx3YnH33M5G-ZYUz2F">
    <mxGraphModel dx="838" dy="1893" grid="1" gridSize="10" guides="1" tooltips="1" connect="1" arrows="1" fold="1" page="1" pageScale="1" pageWidth="850" pageHeight="1100" math="0" shadow="0">
      <root>
        <mxCell id="0" />
        <mxCell id="1" parent="0" />
        <mxCell id="4Mk37lt4Fkw9q3H2yZ4a-4" value="&lt;font style=&quot;font-size: 16px;&quot;&gt;API Gateway&lt;/font&gt;" style="sketch=0;points=[[0,0,0],[0.25,0,0],[0.5,0,0],[0.75,0,0],[1,0,0],[0,1,0],[0.25,1,0],[0.5,1,0],[0.75,1,0],[1,1,0],[0,0.25,0],[0,0.5,0],[0,0.75,0],[1,0.25,0],[1,0.5,0],[1,0.75,0]];outlineConnect=0;fontColor=#232F3E;fillColor=#8C4FFF;strokeColor=#ffffff;dashed=0;verticalLabelPosition=bottom;verticalAlign=top;align=center;html=1;fontSize=12;fontStyle=0;aspect=fixed;shape=mxgraph.aws4.resourceIcon;resIcon=mxgraph.aws4.api_gateway;" vertex="1" parent="1">
          <mxGeometry x="250" y="-20" width="140" height="140" as="geometry" />
        </mxCell>
        <mxCell id="4Mk37lt4Fkw9q3H2yZ4a-7" style="edgeStyle=orthogonalEdgeStyle;rounded=0;orthogonalLoop=1;jettySize=auto;html=1;entryX=0.004;entryY=0.1;entryDx=0;entryDy=0;entryPerimeter=0;exitX=1;exitY=0.097;exitDx=0;exitDy=0;exitPerimeter=0;" edge="1" parent="1" source="4Mk37lt4Fkw9q3H2yZ4a-13" target="4Mk37lt4Fkw9q3H2yZ4a-12">
          <mxGeometry relative="1" as="geometry">
            <mxPoint x="211.07999999999993" y="230" as="sourcePoint" />
            <mxPoint x="570" y="230" as="targetPoint" />
            <Array as="points">
              <mxPoint x="210" y="230" />
            </Array>
          </mxGeometry>
        </mxCell>
        <mxCell id="4Mk37lt4Fkw9q3H2yZ4a-11" value="&lt;font style=&quot;font-size: 15px;&quot;&gt;1. POST https://api.example.com&lt;/font&gt;" style="edgeLabel;html=1;align=center;verticalAlign=middle;resizable=0;points=[];" vertex="1" connectable="0" parent="4Mk37lt4Fkw9q3H2yZ4a-7">
          <mxGeometry x="-0.1535" relative="1" as="geometry">
            <mxPoint x="13" as="offset" />
          </mxGeometry>
        </mxCell>
        <mxCell id="4Mk37lt4Fkw9q3H2yZ4a-17" style="edgeStyle=orthogonalEdgeStyle;rounded=0;orthogonalLoop=1;jettySize=auto;html=1;" edge="1" parent="1" source="4Mk37lt4Fkw9q3H2yZ4a-12" target="4Mk37lt4Fkw9q3H2yZ4a-4">
          <mxGeometry relative="1" as="geometry">
            <Array as="points">
              <mxPoint x="720" />
            </Array>
          </mxGeometry>
        </mxCell>
        <mxCell id="4Mk37lt4Fkw9q3H2yZ4a-18" value="&lt;font style=&quot;font-size: 15px;&quot;&gt;2. OPTIONS Preflight Check&lt;/font&gt;" style="edgeLabel;html=1;align=center;verticalAlign=middle;resizable=0;points=[];" vertex="1" connectable="0" parent="4Mk37lt4Fkw9q3H2yZ4a-17">
          <mxGeometry x="0.6661" y="-2" relative="1" as="geometry">
            <mxPoint x="42" y="2" as="offset" />
          </mxGeometry>
        </mxCell>
        <mxCell id="4Mk37lt4Fkw9q3H2yZ4a-25" style="edgeStyle=orthogonalEdgeStyle;rounded=0;orthogonalLoop=1;jettySize=auto;html=1;" edge="1" parent="1" source="4Mk37lt4Fkw9q3H2yZ4a-12" target="4Mk37lt4Fkw9q3H2yZ4a-4">
          <mxGeometry relative="1" as="geometry">
            <Array as="points">
              <mxPoint x="650" y="70" />
            </Array>
          </mxGeometry>
        </mxCell>
        <mxCell id="4Mk37lt4Fkw9q3H2yZ4a-26" value="&lt;font style=&quot;font-size: 15px;&quot;&gt;4. POST https://api.example.com&lt;/font&gt;" style="edgeLabel;html=1;align=center;verticalAlign=middle;resizable=0;points=[];" vertex="1" connectable="0" parent="4Mk37lt4Fkw9q3H2yZ4a-25">
          <mxGeometry x="0.4321" y="-2" relative="1" as="geometry">
            <mxPoint x="31" as="offset" />
          </mxGeometry>
        </mxCell>
        <mxCell id="4Mk37lt4Fkw9q3H2yZ4a-12" value="" style="image;aspect=fixed;html=1;points=[];align=center;fontSize=12;image=img/lib/azure2/general/Browser.svg;" vertex="1" parent="1">
          <mxGeometry x="566.25" y="215" width="187.5" height="150" as="geometry" />
        </mxCell>
        <mxCell id="4Mk37lt4Fkw9q3H2yZ4a-13" value="&lt;font style=&quot;font-size: 16px;&quot;&gt;example.com&lt;/font&gt;" style="verticalLabelPosition=bottom;html=1;verticalAlign=top;align=center;strokeColor=none;fillColor=#00BEF2;shape=mxgraph.azure.website_generic;pointerEvents=1;" vertex="1" parent="1">
          <mxGeometry x="20" y="215" width="190" height="165" as="geometry" />
        </mxCell>
        <mxCell id="4Mk37lt4Fkw9q3H2yZ4a-14" style="edgeStyle=orthogonalEdgeStyle;rounded=0;orthogonalLoop=1;jettySize=auto;html=1;entryX=1.011;entryY=0.455;entryDx=0;entryDy=0;entryPerimeter=0;" edge="1" parent="1" source="4Mk37lt4Fkw9q3H2yZ4a-12" target="4Mk37lt4Fkw9q3H2yZ4a-13">
          <mxGeometry relative="1" as="geometry" />
        </mxCell>
        <mxCell id="4Mk37lt4Fkw9q3H2yZ4a-29" value="&lt;font style=&quot;font-size: 15px;&quot;&gt;6. POST response&lt;/font&gt;" style="edgeLabel;html=1;align=center;verticalAlign=middle;resizable=0;points=[];" vertex="1" connectable="0" parent="4Mk37lt4Fkw9q3H2yZ4a-14">
          <mxGeometry x="0.6616" relative="1" as="geometry">
            <mxPoint x="107" as="offset" />
          </mxGeometry>
        </mxCell>
        <mxCell id="4Mk37lt4Fkw9q3H2yZ4a-15" value="&lt;font style=&quot;font-size: 16px;&quot;&gt;Browser&lt;/font&gt;" style="text;html=1;align=center;verticalAlign=middle;resizable=0;points=[];autosize=1;strokeColor=none;fillColor=none;" vertex="1" parent="1">
          <mxGeometry x="620" y="365" width="80" height="30" as="geometry" />
        </mxCell>
        <mxCell id="4Mk37lt4Fkw9q3H2yZ4a-20" style="edgeStyle=orthogonalEdgeStyle;rounded=0;orthogonalLoop=1;jettySize=auto;html=1;" edge="1" parent="1" source="4Mk37lt4Fkw9q3H2yZ4a-4">
          <mxGeometry relative="1" as="geometry">
            <mxPoint x="683" y="212" as="targetPoint" />
            <Array as="points">
              <mxPoint x="683" y="30" />
            </Array>
          </mxGeometry>
        </mxCell>
        <mxCell id="4Mk37lt4Fkw9q3H2yZ4a-21" value="&lt;font style=&quot;font-size: 15px;&quot;&gt;3. CORS Header Permissions&lt;/font&gt;" style="edgeLabel;html=1;align=center;verticalAlign=middle;resizable=0;points=[];" vertex="1" connectable="0" parent="4Mk37lt4Fkw9q3H2yZ4a-20">
          <mxGeometry x="-0.5649" y="1" relative="1" as="geometry">
            <mxPoint x="35" y="1" as="offset" />
          </mxGeometry>
        </mxCell>
        <mxCell id="4Mk37lt4Fkw9q3H2yZ4a-27" style="edgeStyle=orthogonalEdgeStyle;rounded=0;orthogonalLoop=1;jettySize=auto;html=1;" edge="1" parent="1" source="4Mk37lt4Fkw9q3H2yZ4a-4">
          <mxGeometry relative="1" as="geometry">
            <mxPoint x="612" y="210" as="targetPoint" />
            <Array as="points">
              <mxPoint x="612" y="110" />
            </Array>
          </mxGeometry>
        </mxCell>
        <mxCell id="4Mk37lt4Fkw9q3H2yZ4a-28" value="&lt;font style=&quot;font-size: 15px;&quot;&gt;5. POST response&lt;/font&gt;" style="edgeLabel;html=1;align=center;verticalAlign=middle;resizable=0;points=[];" vertex="1" connectable="0" parent="4Mk37lt4Fkw9q3H2yZ4a-27">
          <mxGeometry x="-0.7143" relative="1" as="geometry">
            <mxPoint x="52" as="offset" />
          </mxGeometry>
        </mxCell>
      </root>
    </mxGraphModel>
  </diagram>
</mxfile>
